<svg width="147" height="18" viewBox="0 0 147 18" fill="none" xmlns="http://www.w3.org/2000/svg">
<g id="Group 1881">
<g id="Group 1880">
<g id="Group 1603">
<g id="INSIGHT" opacity="0.9">
<path d="M78.4463 4.30999V17.0494H75.1035V4.30999H78.4463Z" fill="#313131"/>
<path d="M78.4463 4.30999V17.0494H75.1035V4.30999H78.4463Z" fill="#35404F"/>
<path d="M91.1311 4.30999V17.0494H88.3338L83.6011 10.1694H83.5132V17.0494H80.1704V4.30999H83.0206L87.6828 11.1548H87.7884V4.30999H91.1311Z" fill="#313131"/>
<path d="M91.1311 4.30999V17.0494H88.3338L83.6011 10.1694H83.5132V17.0494H80.1704V4.30999H83.0206L87.6828 11.1548H87.7884V4.30999H91.1311Z" fill="#35404F"/>
<path d="M99.7167 8.25148C99.6463 7.38928 99.0834 6.89659 97.9398 6.89659C96.8314 6.89659 96.3388 7.3189 96.3212 7.91716C96.3036 8.56821 96.9018 8.93772 98.0805 9.18407L99.1361 9.43041C101.881 10.0111 103.095 11.3484 103.112 13.3015C103.095 15.8001 101.177 17.2078 97.9574 17.2078C94.6674 17.2078 92.5386 15.7649 92.5034 12.6329H95.7054C95.7582 13.8118 96.5851 14.4452 97.9046 14.4452C99.0482 14.4452 99.6639 13.9702 99.6815 13.3015C99.6639 12.6857 99.1537 12.3337 97.7287 12.017L96.4443 11.7355C94.21 11.2428 92.8377 10.1342 92.8377 8.1635C92.8201 5.75286 94.9489 4.13403 97.9398 4.13403C101.001 4.13403 102.919 5.77045 102.936 8.25148H99.7167Z" fill="#313131"/>
<path d="M99.7167 8.25148C99.6463 7.38928 99.0834 6.89659 97.9398 6.89659C96.8314 6.89659 96.3388 7.3189 96.3212 7.91716C96.3036 8.56821 96.9018 8.93772 98.0805 9.18407L99.1361 9.43041C101.881 10.0111 103.095 11.3484 103.112 13.3015C103.095 15.8001 101.177 17.2078 97.9574 17.2078C94.6674 17.2078 92.5386 15.7649 92.5034 12.6329H95.7054C95.7582 13.8118 96.5851 14.4452 97.9046 14.4452C99.0482 14.4452 99.6639 13.9702 99.6815 13.3015C99.6639 12.6857 99.1537 12.3337 97.7287 12.017L96.4443 11.7355C94.21 11.2428 92.8377 10.1342 92.8377 8.1635C92.8201 5.75286 94.9489 4.13403 97.9398 4.13403C101.001 4.13403 102.919 5.77045 102.936 8.25148H99.7167Z" fill="#35404F"/>
<path d="M107.827 4.30999V17.0494H104.485V4.30999H107.827Z" fill="#313131"/>
<path d="M107.827 4.30999V17.0494H104.485V4.30999H107.827Z" fill="#35404F"/>
<path d="M117.838 8.49782C117.609 7.58284 116.853 7.05496 115.727 7.05496C113.95 7.05496 112.912 8.39225 112.912 10.6621C112.912 12.9496 113.879 14.3045 115.709 14.3045C117.301 14.3045 118.111 13.5567 118.137 12.3689H115.78V9.97588H121.374V11.7179C121.374 15.1843 118.999 17.2254 115.674 17.2254C111.979 17.2254 109.463 14.7268 109.463 10.6973C109.463 6.50948 112.226 4.13403 115.656 4.13403C118.647 4.13403 120.952 5.94641 121.233 8.49782H117.838Z" fill="#313131"/>
<path d="M117.838 8.49782C117.609 7.58284 116.853 7.05496 115.727 7.05496C113.95 7.05496 112.912 8.39225 112.912 10.6621C112.912 12.9496 113.879 14.3045 115.709 14.3045C117.301 14.3045 118.111 13.5567 118.137 12.3689H115.78V9.97588H121.374V11.7179C121.374 15.1843 118.999 17.2254 115.674 17.2254C111.979 17.2254 109.463 14.7268 109.463 10.6973C109.463 6.50948 112.226 4.13403 115.656 4.13403C118.647 4.13403 120.952 5.94641 121.233 8.49782H117.838Z" fill="#35404F"/>
<path d="M123.046 17.0494V4.30999H126.388V9.32483H131.086V4.30999H134.446V17.0494H131.086V12.0346H126.388V17.0494H123.046Z" fill="#313131"/>
<path d="M123.046 17.0494V4.30999H126.388V9.32483H131.086V4.30999H134.446V17.0494H131.086V12.0346H126.388V17.0494H123.046Z" fill="#35404F"/>
<path d="M135.783 7.01977V4.30999H146.762V7.01977H142.926V17.0494H139.619V7.01977H135.783Z" fill="#313131"/>
<path d="M135.783 7.01977V4.30999H146.762V7.01977H142.926V17.0494H139.619V7.01977H135.783Z" fill="#35404F"/>
</g>
<g id="ArGos" opacity="0.9">
<path d="M4.68286 16.9829H0L6.36389 0H11.1668L17.5307 16.9829H12.8479L11.7672 13.9502H5.76353L4.68286 16.9829ZM6.84419 10.7963H10.6865L8.76536 5.09486L6.84419 10.7963Z" fill="#FF4C00"/>
<path d="M4.68286 16.9829H0L6.36389 0H11.1668L17.5307 16.9829H12.8479L11.7672 13.9502H5.76353L4.68286 16.9829ZM6.84419 10.7963H10.6865L8.76536 5.09486L6.84419 10.7963Z" fill="#43B69A"/>
<path d="M25.8149 7.64229C24.8062 7.64229 23.7656 7.88491 22.6929 8.37013V16.9829H18.4904V4.12441H22.2126L22.4528 5.70139C23.8296 4.48833 25.2705 3.8818 26.7754 3.8818H27.8561V7.64229H25.8149Z" fill="#FF4C00"/>
<path d="M25.8149 7.64229C24.8062 7.64229 23.7656 7.88491 22.6929 8.37013V16.9829H18.4904V4.12441H22.2126L22.4528 5.70139C23.8296 4.48833 25.2705 3.8818 26.7754 3.8818H27.8561V7.64229H25.8149Z" fill="#43B69A"/>
<path d="M44.1852 16.619C40.4389 17.0233 36.9968 17.2255 33.8588 17.2255C32.2899 17.2255 31.1372 16.8535 30.4007 16.1095C29.6643 15.3655 29.296 14.2009 29.296 12.6159V4.85225C29.296 3.15396 29.6723 1.92473 30.4247 1.16454C31.1932 0.38818 32.418 0 34.099 0H42.7443V3.39658H35.0596C34.099 3.39658 33.6187 3.8818 33.6187 4.85225V12.6159C33.6187 12.9879 33.7228 13.2871 33.9309 13.5135C34.155 13.7238 34.4512 13.8289 34.8194 13.8289C36.6605 13.8289 38.3416 13.7885 39.8625 13.7076V10.1897H36.7406V7.27838H44.1852V16.619Z" fill="#FF4C00"/>
<path d="M44.1852 16.619C40.4389 17.0233 36.9968 17.2255 33.8588 17.2255C32.2899 17.2255 31.1372 16.8535 30.4007 16.1095C29.6643 15.3655 29.296 14.2009 29.296 12.6159V4.85225C29.296 3.15396 29.6723 1.92473 30.4247 1.16454C31.1932 0.38818 32.418 0 34.099 0H42.7443V3.39658H35.0596C34.099 3.39658 33.6187 3.8818 33.6187 4.85225V12.6159C33.6187 12.9879 33.7228 13.2871 33.9309 13.5135C34.155 13.7238 34.4512 13.8289 34.8194 13.8289C36.6605 13.8289 38.3416 13.7885 39.8625 13.7076V10.1897H36.7406V7.27838H44.1852V16.619Z" fill="#43B69A"/>
<path d="M59.3191 13.3437C59.3191 14.5568 58.9749 15.511 58.2865 16.2065C57.6141 16.8858 56.6775 17.2255 55.4767 17.2255H49.9534C48.7526 17.2255 47.8081 16.8858 47.1196 16.2065C46.4472 15.511 46.111 14.5568 46.111 13.3437V7.7636C46.111 6.55054 46.4472 5.60435 47.1196 4.92503C47.8081 4.22955 48.7526 3.8818 49.9534 3.8818H55.4767C56.6775 3.8818 57.6141 4.22955 58.2865 4.92503C58.9749 5.60435 59.3191 6.55054 59.3191 7.7636V13.3437ZM55.1165 8.12752C55.1165 7.48055 54.7963 7.15707 54.1559 7.15707H51.2742C50.6338 7.15707 50.3136 7.48055 50.3136 8.12752V12.9798C50.3136 13.6267 50.6338 13.9502 51.2742 13.9502H54.1559C54.7963 13.9502 55.1165 13.6267 55.1165 12.9798V8.12752Z" fill="#FF4C00"/>
<path d="M59.3191 13.3437C59.3191 14.5568 58.9749 15.511 58.2865 16.2065C57.6141 16.8858 56.6775 17.2255 55.4767 17.2255H49.9534C48.7526 17.2255 47.8081 16.8858 47.1196 16.2065C46.4472 15.511 46.111 14.5568 46.111 13.3437V7.7636C46.111 6.55054 46.4472 5.60435 47.1196 4.92503C47.8081 4.22955 48.7526 3.8818 49.9534 3.8818H55.4767C56.6775 3.8818 57.6141 4.22955 58.2865 4.92503C58.9749 5.60435 59.3191 6.55054 59.3191 7.7636V13.3437ZM55.1165 8.12752C55.1165 7.48055 54.7963 7.15707 54.1559 7.15707H51.2742C50.6338 7.15707 50.3136 7.48055 50.3136 8.12752V12.9798C50.3136 13.6267 50.6338 13.9502 51.2742 13.9502H54.1559C54.7963 13.9502 55.1165 13.6267 55.1165 12.9798V8.12752Z" fill="#43B69A"/>
<path d="M60.9973 13.5863C64.2473 13.8289 66.8089 13.9502 68.682 13.9502C68.9222 13.9502 69.1223 13.8694 69.2824 13.7076C69.4425 13.5459 69.5225 13.3437 69.5225 13.1011V12.2519H64.3594C63.2707 12.2519 62.3982 11.9204 61.7418 11.2572C61.0854 10.5941 60.7572 9.71259 60.7572 8.61274V7.7636C60.7572 6.66376 61.0854 5.78227 61.7418 5.11913C62.3982 4.45598 63.2707 4.12441 64.3594 4.12441H72.5244V7.27838H65.8002C65.5601 7.27838 65.36 7.35925 65.1999 7.52099C65.0398 7.68273 64.9597 7.88491 64.9597 8.12752C64.9597 8.37013 65.0398 8.57231 65.1999 8.73405C65.36 8.89579 65.5601 8.97666 65.8002 8.97666H70.1229C71.2116 8.97666 72.0841 9.30823 72.7405 9.97138C73.3969 10.6345 73.7251 11.516 73.7251 12.6159V13.5863C73.7251 14.6861 73.3969 15.5676 72.7405 16.2308C72.0841 16.8939 71.2116 17.2255 70.1229 17.2255C67.2892 17.2255 64.2473 17.0637 60.9973 16.7403V13.5863Z" fill="#FF4C00"/>
<path d="M60.9973 13.5863C64.2473 13.8289 66.8089 13.9502 68.682 13.9502C68.9222 13.9502 69.1223 13.8694 69.2824 13.7076C69.4425 13.5459 69.5225 13.3437 69.5225 13.1011V12.2519H64.3594C63.2707 12.2519 62.3982 11.9204 61.7418 11.2572C61.0854 10.5941 60.7572 9.71259 60.7572 8.61274V7.7636C60.7572 6.66376 61.0854 5.78227 61.7418 5.11913C62.3982 4.45598 63.2707 4.12441 64.3594 4.12441H72.5244V7.27838H65.8002C65.5601 7.27838 65.36 7.35925 65.1999 7.52099C65.0398 7.68273 64.9597 7.88491 64.9597 8.12752C64.9597 8.37013 65.0398 8.57231 65.1999 8.73405C65.36 8.89579 65.5601 8.97666 65.8002 8.97666H70.1229C71.2116 8.97666 72.0841 9.30823 72.7405 9.97138C73.3969 10.6345 73.7251 11.516 73.7251 12.6159V13.5863C73.7251 14.6861 73.3969 15.5676 72.7405 16.2308C72.0841 16.8939 71.2116 17.2255 70.1229 17.2255C67.2892 17.2255 64.2473 17.0637 60.9973 16.7403V13.5863Z" fill="#43B69A"/>
</g>
</g>
</g>
</g>
</svg>
