<svg width="24" height="24" viewBox="0 0 24 24" fill="none" xmlns="http://www.w3.org/2000/svg">
<g id="tdesign:bill">
<path id="Vector" d="M2 2H22V4H20V22.08L18.375 20.78L16.534 19.308L14.914 20.748L14.25 21.338L13.586 20.748L12 19.337L10.414 20.747L9.75 21.337L9.086 20.747L7.466 19.307L5.625 20.78L4 22.08V4H2V2ZM6 4V17.92L6.875 17.22L7.534 16.692L8.164 17.252L9.75 18.662L11.336 17.252L12 16.662L12.664 17.252L14.25 18.662L15.836 17.252L16.466 16.692L17.125 17.219L18 17.919V4H6ZM8 7H16V9H8V7ZM10 11H9V13H15V11H10Z" fill="white"/>
</g>
</svg>
