<svg width="10" height="16" viewBox="0 0 10 16" fill="none"
    xmlns="http://www.w3.org/2000/svg">
    <path fill-rule="evenodd" clip-rule="evenodd" d="M3.03522 3.42857C3.03522 1.53502 4.57024 0 6.46379 0C8.35734 0 9.89236 1.53502 9.89236 3.42857V8.19048H9.89286V11.4286C9.89286 13.9533 7.84616 16 5.32143 16C2.7967 16 0.75 13.9533 0.75 11.4286V5.14286H1.89286L1.89286 11.4286C1.89286 13.3221 3.42788 14.8571 5.32143 14.8571C7.21498 14.8571 8.75 13.3221 8.75 11.4286V8.19048H8.7495V3.42857C8.7495 2.16621 7.72616 1.14286 6.46379 1.14286C5.20143 1.14286 4.17808 2.16621 4.17808 3.42857V8.09856H4.17818L4.17817 11.4286C4.17817 12.0598 4.68985 12.5715 5.32103 12.5715C5.95222 12.5715 6.46389 12.0598 6.46389 11.4286V5.14289H7.60675L7.60675 11.4286C7.60675 12.691 6.5834 13.7143 5.32103 13.7143C4.05867 13.7143 3.03532 12.691 3.03532 11.4286L3.03532 8.19048H3.03522V3.42857Z" fill="#7A7C82"/>
</svg>
