<svg width="18" height="18" viewBox="0 0 18 18" fill="none"
    xmlns="http://www.w3.org/2000/svg">
    <path d="M0.242511 0.299561L0.0242511 3.14977H17L17.2183 0.299561H8.73039H0.242511ZM0.0242511 5.57488V17.4822C0.0242511 17.6034 0.121255 17.7004 0.242511 17.7004H16.7575C16.8787 17.7004 16.9757 17.6034 16.9757 17.4822V5.57488H0H0.0242511ZM2.44936 7.99999H4.87446V10.4251H2.44936V7.99999ZM7.29957 7.99999H9.72468V10.4251H7.29957V7.99999ZM12.1498 7.99999H14.5749V10.4251H12.1498V7.99999ZM2.44936 12.8502H4.87446V15.2753H2.44936V12.8502ZM7.29957 12.8502H9.72468V15.2753H7.29957V12.8502Z" fill="#747F97"/>
</svg>
