<svg xmlns="http://www.w3.org/2000/svg" width="16" height="15" viewBox="0 0 16 15" fill="none">
    <path fill-rule="evenodd" clip-rule="evenodd" d="M0.5 2.11538C0.5 0.947089 1.44709 0 2.61538 0H13.3846C14.5529 0 15.5 0.947095 15.5 2.11538V12.8846C15.5 14.0529 14.5529 15 13.3846 15H2.61538C1.4471 15 0.5 14.0529 0.5 12.8846V2.11538ZM2.61538 1.15385C2.08434 1.15385 1.65385 1.58434 1.65385 2.11538V12.8846C1.65385 13.4157 2.08434 13.8462 2.61538 13.8462H13.3846C13.9157 13.8462 14.3462 13.4157 14.3462 12.8846V2.11538C14.3462 1.58434 13.9157 1.15385 13.3846 1.15385H2.61538Z" fill="#747F97"/>
    <path fill-rule="evenodd" clip-rule="evenodd" d="M3.57617 3.65407C3.57617 3.33545 3.83447 3.07715 4.15309 3.07715H11.8454C12.164 3.07715 12.4223 3.33545 12.4223 3.65407C12.4223 3.9727 12.164 4.23099 11.8454 4.23099H4.15309C3.83447 4.23099 3.57617 3.9727 3.57617 3.65407Z" fill="#747F97"/>
    <path fill-rule="evenodd" clip-rule="evenodd" d="M3.57617 7.49977C3.57617 7.18115 3.83447 6.92285 4.15309 6.92285H11.8454C12.164 6.92285 12.4223 7.18115 12.4223 7.49977C12.4223 7.8184 12.164 8.0767 11.8454 8.0767H4.15309C3.83447 8.0767 3.57617 7.8184 3.57617 7.49977Z" fill="#747F97"/>
    <path fill-rule="evenodd" clip-rule="evenodd" d="M3.57617 11.346C3.57617 11.0273 3.83447 10.769 4.15309 10.769H8.76848C9.08711 10.769 9.3454 11.0273 9.3454 11.346C9.3454 11.6646 9.08711 11.9229 8.76848 11.9229H4.15309C3.83447 11.9229 3.57617 11.6646 3.57617 11.346Z" fill="#747F97"/>
</svg>