<svg width="24" height="24" viewBox="0 0 24 24" fill="none"
    xmlns="http://www.w3.org/2000/svg">
    <path d="M19.2381 3H4.7621C4.04224 3 3.35186 3.28597 2.84284 3.79499C2.33382 4.30401 2.04785 4.99439 2.04785 5.71425V14.7618C2.04785 15.4816 2.33382 16.172 2.84284 16.681C3.35186 17.1901 4.04224 17.476 4.7621 17.476H5.66686V21.095C5.66726 21.2638 5.71488 21.4291 5.80434 21.5723C5.89379 21.7155 6.02151 21.8307 6.17305 21.9051C6.3246 21.9794 6.49392 22.0099 6.66188 21.9931C6.82984 21.9762 6.98974 21.9127 7.1235 21.8098L12.6968 17.476H19.2381C19.958 17.476 20.6484 17.1901 21.1574 16.681C21.6664 16.172 21.9524 15.4816 21.9524 14.7618V5.71425C21.9524 4.99439 21.6664 4.30401 21.1574 3.79499C20.6484 3.28597 19.958 3 19.2381 3ZM20.1429 14.7618C20.1429 15.0017 20.0476 15.2318 19.8779 15.4015C19.7082 15.5712 19.4781 15.6665 19.2381 15.6665H12.3892C12.1893 15.6671 11.9952 15.7339 11.8373 15.8565L7.47636 19.2855V16.5713C7.47636 16.3313 7.38104 16.1012 7.21136 15.9315C7.04169 15.7618 6.81156 15.6665 6.57161 15.6665H4.7621C4.52215 15.6665 4.29202 15.5712 4.12235 15.4015C3.95268 15.2318 3.85735 15.0017 3.85735 14.7618V5.71425C3.85735 5.4743 3.95268 5.24417 4.12235 5.0745C4.29202 4.90482 4.52215 4.8095 4.7621 4.8095H19.2381C19.4781 4.8095 19.7082 4.90482 19.8779 5.0745C20.0476 5.24417 20.1429 5.4743 20.1429 5.71425V14.7618Z" fill="white"/>
    <path d="M7.47628 9.33343H12.9048C13.1447 9.33343 13.3749 9.23811 13.5445 9.06843C13.7142 8.89876 13.8095 8.66863 13.8095 8.42868C13.8095 8.18872 13.7142 7.9586 13.5445 7.78892C13.3749 7.61925 13.1447 7.52393 12.9048 7.52393H7.47628C7.23633 7.52393 7.0062 7.61925 6.83653 7.78892C6.66686 7.9586 6.57153 8.18872 6.57153 8.42868C6.57153 8.66863 6.66686 8.89876 6.83653 9.06843C7.0062 9.23811 7.23633 9.33343 7.47628 9.33343ZM16.5238 11.1429H7.47628C7.23633 11.1429 7.0062 11.2383 6.83653 11.4079C6.66686 11.5776 6.57153 11.8077 6.57153 12.0477C6.57153 12.2876 6.66686 12.5178 6.83653 12.6874C7.0062 12.8571 7.23633 12.9524 7.47628 12.9524H16.5238C16.7638 12.9524 16.9939 12.8571 17.1636 12.6874C17.3332 12.5178 17.4285 12.2876 17.4285 12.0477C17.4285 11.8077 17.3332 11.5776 17.1636 11.4079C16.9939 11.2383 16.7638 11.1429 16.5238 11.1429Z" fill="white"/>
</svg>
