<svg width="24" height="24" viewBox="0 0 24 24" fill="none" xmlns="http://www.w3.org/2000/svg">
<g id="humbleicons:bell">
<path id="Vector" d="M3 18.2H5.57143M5.57143 18.2H18.4286M5.57143 18.2V11C5.57143 9.4087 6.24872 7.88258 7.45431 6.75736C8.6599 5.63214 10.295 5 12 5C13.705 5 15.3401 5.63214 16.5457 6.75736C17.7513 7.88258 18.4286 9.4087 18.4286 11V18.2M18.4286 18.2H21M11.3571 4.4V2.6C11.3571 2.44087 11.4249 2.28826 11.5454 2.17574C11.666 2.06321 11.8295 2 12 2C12.1705 2 12.334 2.06321 12.4546 2.17574C12.5751 2.28826 12.6429 2.44087 12.6429 2.6V4.4M13.2857 21.8C13.2857 22.1183 13.1503 22.4235 12.9091 22.6485C12.668 22.8736 12.341 23 12 23C11.659 23 11.332 22.8736 11.0909 22.6485C10.8497 22.4235 10.7143 22.1183 10.7143 21.8H13.2857Z" stroke="white" stroke-width="2" stroke-linecap="round" stroke-linejoin="round"/>
</g>
</svg>
