<svg width="24" height="24" viewBox="0 0 24 24" fill="none" xmlns="http://www.w3.org/2000/svg">
<g id="Frame 1888">
<path id="Vector" d="M3 12C3 9.61305 3.94821 7.32387 5.63604 5.63604C7.32387 3.94821 9.61305 3 12 3C14.3869 3 16.6761 3.94821 18.364 5.63604C20.0518 7.32387 21 9.61305 21 12C21 14.3869 20.0518 16.6761 18.364 18.364C16.6761 20.0518 14.3869 21 12 21C9.61305 21 7.32387 20.0518 5.63604 18.364C3.94821 16.6761 3 14.3869 3 12ZM12 4.125C11.9044 4.125 11.8088 4.12725 11.7131 4.13063C11.8459 4.38038 11.9977 4.69762 12.1327 5.0565C12.4477 5.89575 12.7256 7.10063 12.2284 8.15925C11.7739 9.12675 10.9942 9.37875 10.3924 9.534L10.2832 9.56213C9.714 9.70837 9.43388 9.78038 9.237 10.0796C9.04575 10.3688 9.09188 10.7254 9.27863 11.3317L9.32137 11.4712C9.39675 11.7086 9.48338 11.9854 9.52838 12.2453C9.58463 12.567 9.59587 12.9608 9.40125 13.3365C9.19875 13.7224 8.9355 13.9823 8.625 14.151C8.36124 14.2845 8.07733 14.3739 7.78462 14.4154L7.68563 14.4323C7.22775 14.5133 6.96 14.5594 6.71025 14.8271C6.51112 15.0409 6.3975 15.3986 6.33225 15.8858C6.30525 16.086 6.2895 16.2851 6.27262 16.4865L6.26475 16.5934C6.25045 16.822 6.22076 17.0494 6.17587 17.274L6.17025 17.2965C6.90779 18.1099 7.80766 18.7596 8.81179 19.2037C9.81593 19.6479 10.902 19.8765 12 19.875C13.5188 19.875 14.9385 19.4441 16.1423 18.6994C16.0325 18.5903 15.9292 18.475 15.8329 18.354C15.528 17.9715 15.1477 17.3314 15.2794 16.5878C15.3424 16.2356 15.5336 15.9341 15.726 15.6945C15.9229 15.4515 16.1602 15.2254 16.374 15.0285L16.518 14.8969C16.6823 14.7472 16.8251 14.6156 16.9478 14.4885C17.1131 14.3152 17.1626 14.2219 17.1727 14.1926C17.2492 13.9384 17.1581 13.7381 17.031 13.6391C16.9253 13.557 16.6991 13.4794 16.3448 13.7044C16.2265 13.7807 16.1052 13.8524 15.9814 13.9193C15.8636 13.985 15.7359 14.0314 15.6034 14.0565C15.4929 14.0764 15.3791 14.0686 15.2724 14.0338C15.1656 13.9991 15.069 13.9385 14.9914 13.8574C14.8855 13.7389 14.816 13.5924 14.7911 13.4355C14.7743 13.3327 14.763 13.229 14.7574 13.125L14.7517 13.0507C14.745 12.9675 14.7394 12.882 14.7292 12.783C14.7014 12.4697 14.6476 12.1593 14.5684 11.8549C14.4255 11.3025 14.0734 10.8559 13.7089 10.3924L13.5491 10.1888C13.3691 9.957 13.1407 9.651 13.0586 9.3225C13.0038 9.11952 13.0132 8.90453 13.0856 8.70712C13.1666 8.49337 13.314 8.32912 13.4816 8.20312C13.9631 7.84312 14.7506 7.0635 15.4425 6.34462C15.7834 5.99137 16.0905 5.66175 16.3144 5.41988L16.32 5.41313C15.0372 4.57003 13.5351 4.12213 12 4.125ZM17.2177 6.10162L17.1401 6.18487C16.914 6.43012 16.6001 6.76537 16.2536 7.12537C15.5764 7.82962 14.7326 8.67 14.1667 9.0975C14.2005 9.17175 14.2793 9.2955 14.439 9.50137L14.5785 9.67912C14.934 10.1258 15.4493 10.7726 15.6574 11.5725C15.7733 12.0169 15.8227 12.3881 15.8497 12.6795L15.8509 12.6908C16.5124 12.3195 17.2121 12.3577 17.7184 12.7504C18.2347 13.1486 18.453 13.8428 18.2494 14.5189C18.1583 14.8204 17.9423 15.0757 17.7611 15.2659C17.5993 15.4309 17.432 15.5904 17.2594 15.744C17.218 15.7814 17.1768 15.8189 17.1356 15.8565C16.9241 16.0523 16.7419 16.23 16.6024 16.4021C16.4595 16.5788 16.4021 16.7036 16.3875 16.7869C16.3425 17.0422 16.4685 17.346 16.7137 17.6554C16.8274 17.7994 16.9489 17.9186 17.0411 18.0041L17.0692 18.0278C17.9489 17.2893 18.656 16.367 19.1408 15.3257C19.6256 14.2845 19.8762 13.1497 19.875 12.0011C19.8764 10.8855 19.6401 9.78233 19.1819 8.7651C18.7238 7.74788 18.0542 6.83991 17.2177 6.10162ZM10.6478 4.52325C10.5998 4.43701 10.5499 4.35186 10.4981 4.26788C9.26448 4.50777 8.10612 5.03932 7.11977 5.81813C6.13342 6.59694 5.3477 7.60041 4.8282 8.74477C4.30871 9.88914 4.07052 11.1412 4.13353 12.3963C4.19653 13.6515 4.5589 14.8734 5.19038 15.96C5.19834 15.8856 5.20734 15.8114 5.21738 15.7372C5.28713 15.2119 5.4345 14.5459 5.88787 14.0599C6.40762 13.503 7.04213 13.3984 7.46738 13.3286L7.58887 13.3073C7.81725 13.2668 7.96687 13.2285 8.08725 13.1632C8.22616 13.0833 8.33638 12.9617 8.40225 12.8156C8.436 12.7549 8.45625 12.6502 8.42025 12.4376C8.37824 12.2334 8.32338 12.032 8.256 11.8346L8.20312 11.6625C8.031 11.1034 7.78237 10.2428 8.29763 9.45975C8.74762 8.77688 9.46763 8.6025 9.95925 8.48213L10.1111 8.445C10.6365 8.31 10.9785 8.17275 11.2103 7.68C11.5039 7.0545 11.3711 6.2265 11.0798 5.4525C10.9582 5.13278 10.8139 4.82223 10.6478 4.52325Z" fill="white" stroke="white" stroke-width="0.8"/>
</g>
</svg>
