<svg xmlns="http://www.w3.org/2000/svg" width="22" height="22" viewBox="0 0 22 22" fill="none">
    <path d="M9.72226 0.526014C4.70146 0.526014 0.617188 4.61029 0.617188 9.63108C0.617188 14.6519 4.70146 18.7362 9.72226 18.7362C11.2571 18.7362 12.766 18.372 14.0407 17.6696C14.1428 17.7924 14.256 17.9056 14.3788 18.0077L16.9803 20.6092C17.2205 20.8795 17.5134 21.0978 17.8411 21.2508C18.1687 21.4038 18.5242 21.4882 18.8856 21.4989C19.2471 21.5095 19.6069 21.4461 19.943 21.3127C20.2791 21.1792 20.5843 20.9785 20.84 20.7228C21.0957 20.4671 21.2964 20.1619 21.4299 19.8258C21.5633 19.4897 21.6267 19.1299 21.616 18.7684C21.6054 18.407 21.521 18.0515 21.368 17.7239C21.215 17.3962 20.9967 17.1033 20.7264 16.8631L18.1249 14.2617C17.9982 14.1349 17.8587 14.0216 17.7087 13.9235C18.4111 12.6488 18.8533 11.1659 18.8533 9.60507C18.8533 4.58427 14.7691 0.5 9.74827 0.5L9.72226 0.526014ZM9.72226 3.12746C13.3383 3.12746 16.2259 6.01507 16.2259 9.63108C16.2259 11.348 15.6015 12.9349 14.5089 14.1056C14.4829 14.1316 14.4569 14.1576 14.4309 14.1836C14.308 14.2857 14.1948 14.3989 14.0927 14.5218C12.9481 15.5624 11.3872 16.1607 9.69624 16.1607C6.08023 16.1607 3.19262 13.2731 3.19262 9.6571C3.19262 6.04108 6.08023 3.15348 9.69624 3.15348L9.72226 3.12746Z" fill="#747F97"/>
</svg>