<svg width="20" height="20" viewBox="0 0 20 20" fill="none" xmlns="http://www.w3.org/2000/svg">
<g id="Vector">
<path d="M17.4328 10.98C17.4728 10.66 17.5028 10.34 17.5028 10C17.5028 9.66 17.4728 9.34 17.4328 9.02L19.5428 7.37C19.7328 7.22 19.7828 6.95 19.6628 6.73L17.6628 3.27C17.5428 3.05 17.2728 2.97 17.0528 3.05L14.5628 4.05C14.0428 3.65 13.4828 3.32 12.8728 3.07L12.4928 0.42C12.4628 0.18 12.2528 0 12.0028 0H8.00277C7.75277 0 7.54277 0.18 7.51277 0.42L7.13277 3.07C6.52277 3.32 5.96277 3.66 5.44277 4.05L2.95277 3.05C2.72277 2.96 2.46277 3.05 2.34277 3.27L0.342769 6.73C0.212769 6.95 0.272769 7.22 0.462769 7.37L2.57277 9.02C2.53277 9.34 2.50277 9.67 2.50277 10C2.50277 10.33 2.53277 10.66 2.57277 10.98L0.462769 12.63C0.272769 12.78 0.222769 13.05 0.342769 13.27L2.34277 16.73C2.46277 16.95 2.73277 17.03 2.95277 16.95L5.44277 15.95C5.96277 16.35 6.52277 16.68 7.13277 16.93L7.51277 19.58C7.54277 19.82 7.75277 20 8.00277 20H12.0028C12.2528 20 12.4628 19.82 12.4928 19.58L12.8728 16.93C13.4828 16.68 14.0428 16.34 14.5628 15.95L17.0528 16.95C17.2828 17.04 17.5428 16.95 17.6628 16.73L19.6628 13.27C19.7828 13.05 19.7328 12.78 19.5428 12.63L17.4328 10.98ZM10.0028 13.5C8.07277 13.5 6.50277 11.93 6.50277 10C6.50277 8.07 8.07277 6.5 10.0028 6.5C11.9328 6.5 13.5028 8.07 13.5028 10C13.5028 11.93 11.9328 13.5 10.0028 13.5Z" fill="#F5F8FB"/>
<path d="M17.4328 10.98C17.4728 10.66 17.5028 10.34 17.5028 10C17.5028 9.66 17.4728 9.34 17.4328 9.02L19.5428 7.37C19.7328 7.22 19.7828 6.95 19.6628 6.73L17.6628 3.27C17.5428 3.05 17.2728 2.97 17.0528 3.05L14.5628 4.05C14.0428 3.65 13.4828 3.32 12.8728 3.07L12.4928 0.42C12.4628 0.18 12.2528 0 12.0028 0H8.00277C7.75277 0 7.54277 0.18 7.51277 0.42L7.13277 3.07C6.52277 3.32 5.96277 3.66 5.44277 4.05L2.95277 3.05C2.72277 2.96 2.46277 3.05 2.34277 3.27L0.342769 6.73C0.212769 6.95 0.272769 7.22 0.462769 7.37L2.57277 9.02C2.53277 9.34 2.50277 9.67 2.50277 10C2.50277 10.33 2.53277 10.66 2.57277 10.98L0.462769 12.63C0.272769 12.78 0.222769 13.05 0.342769 13.27L2.34277 16.73C2.46277 16.95 2.73277 17.03 2.95277 16.95L5.44277 15.95C5.96277 16.35 6.52277 16.68 7.13277 16.93L7.51277 19.58C7.54277 19.82 7.75277 20 8.00277 20H12.0028C12.2528 20 12.4628 19.82 12.4928 19.58L12.8728 16.93C13.4828 16.68 14.0428 16.34 14.5628 15.95L17.0528 16.95C17.2828 17.04 17.5428 16.95 17.6628 16.73L19.6628 13.27C19.7828 13.05 19.7328 12.78 19.5428 12.63L17.4328 10.98ZM10.0028 13.5C8.07277 13.5 6.50277 11.93 6.50277 10C6.50277 8.07 8.07277 6.5 10.0028 6.5C11.9328 6.5 13.5028 8.07 13.5028 10C13.5028 11.93 11.9328 13.5 10.0028 13.5Z" fill="#AFBDCA"/>
</g>
</svg>
